<?xml version="1.0" encoding="UTF-8"?>
<svg width="41px" height="50px" viewBox="0 0 41 50" version="1.1" xmlns="http://www.w3.org/2000/svg" xmlns:xlink="http://www.w3.org/1999/xlink">
    <!-- Generator: Sketch 53.2 (72643) - https://sketchapp.com -->
    <title>Fuel Icon</title>
    <desc>Created with Sketch.</desc>
    <g id="Page-1" stroke="none" stroke-width="1" fill="none" fill-rule="evenodd">
        <g id="Select-Fuel" transform="translate(-317.000000, -633.000000)" fill="#373A3C" fill-rule="nonzero">
            <path d="M354.046258,650.781736 C355.875527,651.224427 357.240002,652.871678 357.240002,654.835509 L357.240002,672.973478 C357.240002,675.275989 355.36653,677.149462 353.064018,677.149462 C350.761506,677.149462 348.888034,675.275989 348.888034,672.973478 L348.888034,668.211139 L347.878491,668.211139 L347.878491,681.049821 L349.016095,681.049821 C349.554995,681.049821 349.991185,681.486661 349.991185,682.02491 C349.991185,682.56316 349.554995,683 349.016095,683 L345.8061,683 L320.087784,683 L317.97509,683 C317.43619,683 317,682.56316 317,682.02491 C317,681.486661 317.43619,681.049821 317.97509,681.049821 L319.112694,681.049821 L319.112694,651.472099 C319.112694,650.626372 319.478678,649.870352 320.053981,649.336003 L320.053981,636.760596 C320.053981,634.687555 321.741536,633 323.815227,633 L343.175308,633 C345.249649,633 346.936554,634.687555 346.936554,636.760596 L346.936554,649.335353 C347.511857,649.869702 347.877841,650.626372 347.877841,651.472099 L347.877841,666.26096 L349.862473,666.26096 C350.401373,666.26096 350.837563,666.6978 350.837563,667.23605 L350.837563,672.973478 C350.837563,674.20079 351.836055,675.199282 353.063368,675.199282 C354.290681,675.199282 355.289173,674.20079 355.289173,672.973478 L355.289173,654.835509 C355.289173,653.608196 354.290681,652.609704 353.063368,652.609704 C352.524468,652.609704 352.088278,652.172864 352.088278,651.634614 C352.088278,651.608612 352.094129,651.58456 352.096079,651.559207 L352.096079,650.226585 L349.950231,650.226585 C349.411332,650.226585 348.975142,649.789745 348.975142,649.251495 L348.975142,647.247361 C348.975142,646.988637 349.077851,646.740314 349.260518,646.557647 C350.91362,644.905195 351.854907,640.987285 352.096079,639.5266 L352.096079,636.846404 C352.096079,636.308154 352.532269,635.871314 353.071169,635.871314 C353.610068,635.871314 354.046258,636.308154 354.046258,636.846404 L354.046258,639.608508 L354.046258,640.584248 L354.046258,650.781736 Z M323.815227,636.250299 C323.533751,636.250299 323.30428,636.47977 323.30428,636.760596 L323.30428,648.54683 L343.686905,648.54683 L343.686905,636.760596 C343.686905,636.47977 343.457434,636.250299 343.175958,636.250299 L323.815227,636.250299 Z" id="Fuel-Icon"></path>
        </g>
    </g>
</svg>