<?xml version="1.0" encoding="UTF-8"?>
<svg width="45px" height="50px" viewBox="0 0 45 50" version="1.1" xmlns="http://www.w3.org/2000/svg" xmlns:xlink="http://www.w3.org/1999/xlink">
    <!-- Generator: Sketch 53.2 (72643) - https://sketchapp.com -->
    <title>Gearbox icon</title>
    <desc>Created with Sketch.</desc>
    <g id="Page-1" stroke="none" stroke-width="1" fill="none" fill-rule="evenodd">
        <g id="Select-Fuel" transform="translate(-595.000000, -633.000000)" fill="#373A3C" fill-rule="nonzero">
            <path d="M639.332211,638.555556 C639.332211,635.525253 636.863075,633 633.776655,633 C630.746352,633 628.2211,635.469136 628.2211,638.555556 C628.2211,640.800224 629.567901,642.76431 631.531987,643.606061 L631.531987,656.400673 L619.242424,656.400673 L619.242424,643.662177 C621.262626,642.820426 622.721661,640.856341 622.721661,638.555556 C622.721661,635.525253 620.252525,633 617.166105,633 C614.079686,633 611.61055,635.469136 611.61055,638.555556 C611.61055,640.856341 613.013468,642.876543 615.089787,643.662177 L615.089787,656.400673 L602.800224,656.400673 L602.800224,643.606061 C604.76431,642.76431 606.111111,640.800224 606.111111,638.555556 C606.111111,635.525253 603.641975,633 600.555556,633 C597.525253,633 595,635.469136 595,638.555556 C595,640.912458 596.515152,642.93266 598.59147,643.718294 L598.59147,656.400673 L598.59147,660.553311 L598.59147,672.281706 C596.515152,673.06734 595,675.087542 595,677.444444 C595,680.474747 597.469136,683 600.555556,683 C603.585859,683 606.111111,680.530864 606.111111,677.444444 C606.111111,675.199776 604.76431,673.23569 602.800224,672.393939 L602.800224,660.609428 L615.089787,660.609428 L615.089787,672.337823 C613.069585,673.179574 611.61055,675.143659 611.61055,677.444444 C611.61055,680.474747 614.079686,683 617.166105,683 C620.252525,683 622.721661,680.530864 622.721661,677.444444 C622.721661,675.143659 621.318743,673.123457 619.242424,672.337823 L619.242424,660.553311 L631.531987,660.553311 L635.684624,660.553311 L635.684624,656.400673 L635.684624,643.718294 C637.817059,642.93266 639.332211,640.912458 639.332211,638.555556 Z" id="Gearbox-icon"></path>
        </g>
    </g>
</svg>