<?xml version="1.0" encoding="UTF-8"?>
<svg width="51px" height="50px" viewBox="0 0 51 50" version="1.1" xmlns="http://www.w3.org/2000/svg" xmlns:xlink="http://www.w3.org/1999/xlink">
    <!-- Generator: Sketch 53.2 (72643) - https://sketchapp.com -->
    <title>Traction icon</title>
    <desc>Created with Sketch.</desc>
    <g id="Page-1" stroke="none" stroke-width="1" fill="none" fill-rule="evenodd">
        <g id="Select-Fuel" transform="translate(-874.000000, -633.000000)" fill="#373A3C" fill-rule="nonzero">
            <path d="M922,645.5 C923.152083,645.5 924.083333,644.566667 924.083333,643.416667 L924.083333,637.166667 C924.083333,636.016667 923.152083,635.083333 922,635.083333 L909.5,635.083333 C908.347917,635.083333 907.416667,636.016667 907.416667,637.166667 L907.416667,643.416667 C907.416667,644.566667 908.347917,645.5 909.5,645.5 L913.666667,645.5 L913.666667,650.8875 L908.6375,655.916667 L889.529167,655.916667 L884.5,650.8875 L884.5,646.441667 L887.0375,647.439583 C887.283333,647.535417 887.541667,647.583333 887.8,647.583333 C888.083333,647.583333 888.366667,647.525 888.63125,647.410417 C889.139583,647.189583 889.5375,646.777083 889.739583,646.2625 L892.025,640.445833 C892.445833,639.375 891.920833,638.164583 890.85,637.74375 L879.216667,633.170833 C878.702083,632.96875 878.127083,632.979167 877.620833,633.197917 C877.114583,633.41875 876.716667,633.83125 876.514583,634.345833 L874.227083,640.1625 C873.80625,641.233333 874.333333,642.441667 875.404167,642.8625 L880.333333,644.802083 L880.333333,650.8875 L874.69375,656.527083 C873.879167,657.341667 873.879167,658.658333 874.69375,659.472917 L880.333333,665.1125 L880.333333,669 L879.216667,668.560417 C878.702083,668.360417 878.127083,668.370833 877.620833,668.589583 C877.114583,668.810417 876.716667,669.222917 876.514583,669.7375 L874.227083,675.554167 C873.80625,676.625 874.333333,677.835417 875.404167,678.25625 L887.0375,682.829167 C887.283333,682.927083 887.541667,682.975 887.8,682.975 C888.083333,682.975 888.366667,682.916667 888.63125,682.802083 C889.139583,682.58125 889.5375,682.16875 889.739583,681.654167 L892.025,675.8375 C892.445833,674.766667 891.920833,673.558333 890.85,673.1375 L884.5,670.639583 L884.5,665.1125 L889.529167,660.083333 L908.6375,660.083333 L913.666667,665.1125 L913.666667,670.5 L909.5,670.5 C908.347917,670.5 907.416667,671.433333 907.416667,672.583333 L907.416667,678.833333 C907.416667,679.983333 908.347917,680.916667 909.5,680.916667 L922,680.916667 C923.152083,680.916667 924.083333,679.983333 924.083333,678.833333 L924.083333,672.583333 C924.083333,671.433333 923.152083,670.5 922,670.5 L917.833333,670.5 L917.833333,665.1125 L923.472917,659.472917 C924.2875,658.658333 924.2875,657.341667 923.472917,656.527083 L917.833333,650.8875 L917.833333,645.5 C917.833333,644.347917 920.847917,645.5 922,645.5 Z" id="Traction-icon"></path>
        </g>
    </g>
</svg>