<svg id="Capa_1" data-name="Capa 1" xmlns="http://www.w3.org/2000/svg" xmlns:xlink="http://www.w3.org/1999/xlink" viewBox="0 0 750.89 257.28"><defs><style>.cls-1{fill-rule:evenodd;fill:url(#linear-gradient);}.cls-2{fill:#fff;}.cls-3{fill:#9a9a9c;}</style><linearGradient id="linear-gradient" x1="68.17" y1="214.27" x2="188.09" y2="43.01" gradientUnits="userSpaceOnUse"><stop offset="0" stop-color="#202d54"/><stop offset="0.14" stop-color="#1f355d"/><stop offset="0.36" stop-color="#1d4975"/><stop offset="0.63" stop-color="#196b9d"/><stop offset="0.95" stop-color="#139ad3"/><stop offset="1" stop-color="#12a2dd"/><stop offset="1" stop-color="#1ea1dc"/></linearGradient></defs><title>Sigla GT Motive</title><path id="Rombo" class="cls-1" d="M138,8.21,248.56,118.77a13.94,13.94,0,0,1,0,19.74L138,249.08a14,14,0,0,1-19.74,0L7.69,138.51a14,14,0,0,1,0-19.74L118.26,8.21A13.94,13.94,0,0,1,138,8.21Z"/><path class="cls-2" d="M135.11,165.78c0-.26-.26-.45-.75-.54l-.29,1.35C134.66,166.37,135.07,166.07,135.11,165.78Z"/><path class="cls-2" d="M136.68,133.33a2.49,2.49,0,0,0,2.34-1.88c.09-.92-.83-1.55-2-1.44a3,3,0,0,0-1.64.68v2.41A2.27,2.27,0,0,0,136.68,133.33Z"/><path class="cls-2" d="M64.94,97.2s0-.1,0-.16c0-1.54-.4-2.77-1-2.76s-1.1,1.29-1.15,2.83a3.63,3.63,0,0,0,.68,2.61s.23-.44.75-1.33S64.94,97.2,64.94,97.2Z"/><path class="cls-2" d="M83.85,135.92c.06-.95-.52-1.72-1.29-1.65a1.45,1.45,0,0,0-1,.6s.28.64.72,1.41.75,1.22.75,1.22A2,2,0,0,0,83.85,135.92Z"/><path class="cls-2" d="M137.2,149.07c.08-.64-.75-1.06-1.86-1v2.39C136.34,150.25,137.13,149.66,137.2,149.07Z"/><path class="cls-2" d="M196.89,93.08a2.81,2.81,0,0,0,2.7-2.47,2.14,2.14,0,0,0-2.48-2.11,3,3,0,0,0-1,.22V93A2.88,2.88,0,0,0,196.89,93.08Z"/><path class="cls-2" d="M181.65,143.25a1.1,1.1,0,0,0,.47-.67c.07-.54-.69-.87-1.78-.8a5.74,5.74,0,0,0,.61.8A6.6,6.6,0,0,0,181.65,143.25Z"/><path class="cls-2" d="M83.41,118.91c-.78,0-1.36-.92-1.31-2.14s.75-2.27,1.53-2.3,1.37.93,1.31,2.16S84.19,118.88,83.41,118.91Zm18,17.53a1.44,1.44,0,0,1-1.6-1.58,2.06,2.06,0,0,1,1.85-1.84,1.43,1.43,0,0,1,1.58,1.59A2,2,0,0,1,101.46,136.44Zm1.26-18.62c-1,.06-1.68-.87-1.6-2.09a2.32,2.32,0,0,1,1.86-2.3c1-.05,1.67.88,1.59,2.09A2.32,2.32,0,0,1,102.72,117.82Z"/><path class="cls-2" d="M187.06,57.26a2.49,2.49,0,0,1-2.2,1.53,3,3,0,0,1-2.64-3.18,3.33,3.33,0,0,1,.86-2.33Zm33.46,33.46a3.14,3.14,0,0,1-1.51.56,2,2,0,0,1-2.45-1.94,2.33,2.33,0,0,1,.92-1.66Zm31.57,41.87a5.88,5.88,0,0,1-1.23,1.6c-.69.62-1.23.84-1.14.51a5.92,5.92,0,0,1,1.44-1.7c.59-.53,1-.76,1-.57Zm-58.54,60.94c-.46.19-1.18.47-2,.74a11.12,11.12,0,0,1-2.5.74,18.29,18.29,0,0,1,2.57-1c.93-.31,1.71-.57,2.12-.68ZM177.13,210l-.51.17c-1.37.47-2.45.65-2.38.45a7.74,7.74,0,0,1,2.6-1.15c.43-.14.82-.24,1.15-.33Zm-14.54,14.54a10.33,10.33,0,0,1-1.69.65c-1.31.43-2.31.47-2.2.17a5.49,5.49,0,0,1,2.58-1.25,4.88,4.88,0,0,1,2.07-.33Zm-57.14,11.78h0c1-.14,1.68,0,1.62.3s-.36.39-.8.55ZM41.32,172.14h0c.27,0,.48.26.55.6ZM170.2,40.41a3.11,3.11,0,0,1-1.92-1.92ZM241.34,114c1.14-.32,1.95,0,1.85.69s-1.06,1.56-2.2,1.88-2.05,0-2-.68S240.18,114.29,241.34,114Zm-7.14,1.86c1.25-.31,2.16,0,2.06.77s-1.16,1.58-2.41,1.89-2.24,0-2.15-.77S232.93,116.11,234.2,115.81Zm-6.64-13.71c1.33-.2,2.33.4,2.24,1.35a2.94,2.94,0,0,1-2.55,2.1c-1.36.21-2.4-.38-2.32-1.35S226.2,102.31,227.56,102.1ZM226,117.65c1.33-.27,2.32.11,2.21.86s-1.23,1.59-2.56,1.9-2.4-.1-2.3-.86S224.59,117.93,226,117.65Zm-7.77-14.24c1.39-.17,2.43.46,2.35,1.44s-1.27,1.92-2.66,2.13-2.51-.44-2.41-1.44S216.77,103.59,218.18,103.41Zm-1.61,16.07c1.39-.24,2.42.17,2.33,1s-1.28,1.62-2.67,1.9-2.49-.16-2.4-1S215.17,119.75,216.57,119.48Zm-2.11,15.59c1.38-.32,2.42-.11,2.32.48s-1.27,1.34-2.66,1.66-2.48.13-2.39-.47S213.05,135.4,214.46,135.07Zm-5.73-47.33a2.09,2.09,0,0,1,2.46,2,2.82,2.82,0,0,1-2.68,2.41,2.11,2.11,0,0,1-2.51-2A2.83,2.83,0,0,1,208.73,87.74Zm-1,17c1.42-.17,2.49.52,2.41,1.53s-1.29,2-2.72,2.16-2.55-.5-2.47-1.53S206.24,104.9,207.68,104.71Zm-1.59,16.59c1.42-.22,2.47.23,2.39,1s-1.31,1.65-2.74,1.9-2.54-.21-2.44-1S204.65,121.55,206.09,121.3ZM204,137.37c1.42-.3,2.49,0,2.39.56s-1.3,1.34-2.72,1.64-2.54.06-2.45-.55S202.55,137.65,204,137.37ZM197.6,70.74a2.52,2.52,0,0,1,2.55,2.61,2.78,2.78,0,0,1-2.64,2.73,2.53,2.53,0,0,1-2.58-2.61A2.75,2.75,0,0,1,197.6,70.74Zm-12.74.19a2.56,2.56,0,0,1,2.52,2.71,2.8,2.8,0,0,1-2.6,2.81,2.57,2.57,0,0,1-2.56-2.71A2.8,2.8,0,0,1,184.86,70.93Zm-14-18.76c1.38,0,2.51,1.49,2.54,3.26s-1.07,3.18-2.44,3.18-2.53-1.49-2.56-3.27S169.52,52.14,170.91,52.17ZM156,58.42c-1.32,0-2.41-1.52-2.43-3.36s1-3.29,2.33-3.27,2.4,1.54,2.43,3.36S157.34,58.42,156,58.42Zm2.33,15.78a2.81,2.81,0,0,1-2.42,3,2.58,2.58,0,0,1-2.34-2.88,2.8,2.8,0,0,1,2.43-3A2.6,2.6,0,0,1,158.36,74.2Zm-3.09-41.76c1.31.08,2.44,1.77,2.53,3.78s-.9,3.62-2.21,3.54S153.14,38,153.05,36,154,32.35,155.27,32.44ZM153,128.35c1.3-.15,2.29.47,2.2,1.37s-1.21,1.75-2.52,1.89-2.31-.46-2.22-1.37S151.7,128.49,153,128.35Zm-1-16.24a2.71,2.71,0,0,1,2.54-2.27,1.86,1.86,0,0,1,2.21,1.87,2.71,2.71,0,0,1-2.51,2.26C152.9,114.06,151.9,113.25,152,112.11Zm-.88,34c1.3-.16,2.28.23,2.19.89s-1.19,1.37-2.49,1.53-2.3-.23-2.22-.89S149.79,146.3,151.1,146.11ZM148.86,163c1.28-.21,2.27,0,2.2.46s-1.15,1-2.44,1.18-2.3,0-2.23-.46S147.56,163.2,148.86,163Zm-.29,16c0,.26-1.1.65-2.37.86s-2.29.18-2.25-.07,1.12-.64,2.41-.85S148.61,178.72,148.57,179Zm-2.69,14.55a10.75,10.75,0,0,1-2.29.56,8.79,8.79,0,0,1-2.26.28,12.85,12.85,0,0,1,2.31-.56A10,10,0,0,1,145.88,193.52Zm-6.64-96.88a2.16,2.16,0,0,1-2.11-2.46,2.69,2.69,0,0,1,2.32-2.68,2.18,2.18,0,0,1,2.1,2.47A2.71,2.71,0,0,1,139.24,96.64ZM140.49,113a2.58,2.58,0,0,1-2.34,2.28,1.82,1.82,0,0,1-2.07-1.94,2.58,2.58,0,0,1,2.36-2.29A1.82,1.82,0,0,1,140.49,113Zm-2.81-38.47c0-1.67,1-3,2.25-3s2.18,1.32,2.17,3-1,3-2.25,3.05S137.66,76.23,137.68,74.56Zm2.25-16.32c-1.22,0-2.22-1.56-2.25-3.45s.93-3.41,2.16-3.37,2.23,1.57,2.26,3.44S141.15,58.25,139.93,58.24ZM139.5,39c-1.23,0-2.29-1.78-2.37-3.87s.83-3.71,2.05-3.64,2.28,1.79,2.37,3.86S140.71,39.11,139.5,39ZM138,12.14c1.21.09,2.33,2,2.48,4.19s-.72,4-1.94,3.87-2.32-2-2.48-4.21S136.8,12,138,12.14Zm-15.3,45.92c-1.1,0-2-1.6-2-3.54s.84-3.5,1.94-3.48,2,1.61,2,3.54S123.82,58.08,122.72,58.06Zm2,16.71c0,1.71-.94,3.08-2,3.13s-2-1.35-1.95-3.06.93-3.13,2-3.13S124.69,73.07,124.67,74.77Zm-2.39-36.43c-1.1-.05-2.06-1.82-2.14-4s.73-3.8,1.84-3.76,2.06,1.82,2.15,3.94S123.38,38.38,122.28,38.34ZM120.85,10.8c1.1.09,2.11,2,2.26,4.24s-.64,4.06-1.73,4-2.11-2-2.26-4.27S119.75,10.72,120.85,10.8ZM104.39,57.88c-1,0-1.76-1.64-1.78-3.63s.72-3.61,1.68-3.58,1.76,1.64,1.79,3.63S105.35,57.88,104.39,57.88Zm1.69,17.18c0,1.75-.82,3.2-1.78,3.2s-1.71-1.39-1.69-3.15.81-3.2,1.78-3.21S106.1,73.31,106.08,75.06Zm-2.42-45.3c1,0,1.8,1.83,1.88,4s-.63,3.93-1.58,3.88-1.79-1.84-1.88-4S102.7,29.72,103.66,29.76ZM84.84,50.31c.79,0,1.47,1.67,1.48,3.71s-.59,3.69-1.38,3.68S83.49,56,83.47,54,84.05,50.3,84.84,50.31Zm.09,21.78c.79,0,1.42,1.45,1.39,3.25s-.68,3.25-1.47,3.28-1.41-1.44-1.38-3.24S84.14,72.09,84.93,72.09Zm-20.57.19c.6,0,1.07,1.49,1,3.34S64.88,79,64.28,79s-1.05-1.47-1-3.32S63.77,72.28,64.36,72.28ZM20.57,118.05a5.74,5.74,0,0,1,.18-2.24,5.87,5.87,0,0,1,.25,2.25,5.67,5.67,0,0,1-.18,2.23A5.79,5.79,0,0,1,20.57,118.05Zm.52,21.16a3.86,3.86,0,0,1-.23-1.73,3.65,3.65,0,0,1,.18-1.74,3.69,3.69,0,0,1,.24,1.74C21.3,138.44,21.21,139.21,21.09,139.21Zm20.5,17.85c-.34,0-.6-.56-.6-1.26s.3-1.25.64-1.28.61.56.6,1.26S41.93,157.06,41.59,157.06Zm.27-17.84c-.35,0-.62-.77-.62-1.73s.31-1.74.67-1.74.62.77.61,1.73S42.2,139.19,41.86,139.22Zm.26-18.92c-.36,0-.65-1-.62-2.23s.32-2.26.68-2.26.63,1,.62,2.25S42.48,120.31,42.12,120.3Zm.26-20c-.37,0-.65-1.24-.64-2.78s.34-2.81.71-2.81.65,1.25.63,2.8S42.74,100.3,42.38,100.31ZM60.07,189c-.54,0-1-.17-.94-.43s.45-.5,1-.52,1,.17.93.43S60.6,189,60.07,189Zm.79-15.69a.83.83,0,0,1-1-.81,1,1,0,0,1,1-.89.84.84,0,0,1,1,.81A1,1,0,0,1,60.86,173.29Zm.78-16.77a1,1,0,0,1-1-1.22A1.29,1.29,0,0,1,61.75,154c.56,0,1,.53,1,1.23A1.27,1.27,0,0,1,61.64,156.52Zm15.78,46a2.81,2.81,0,0,1-1.26-.05,3,3,0,0,1,1.29-.24,2.86,2.86,0,0,1,1.27,0A3,3,0,0,1,77.42,202.53Zm15.86,12.24a4.52,4.52,0,0,1-1.53,0,6.67,6.67,0,0,1,1.57-.3,5.68,5.68,0,0,1,1.53,0A5.18,5.18,0,0,1,93.28,214.77ZM95.07,201a4.09,4.09,0,0,1-1.58,0,5.13,5.13,0,0,1,1.62-.31,4.28,4.28,0,0,1,1.57,0A4.94,4.94,0,0,1,95.07,201ZM78.68,171.49c0-.47.67-.91,1.41-.94s1.32.29,1.28.76-.66.89-1.4.94S78.65,172,78.68,171.49Zm18.17-1.4c0-.47.83-.91,1.75-1s1.62.23,1.58.69-.83.93-1.75,1S96.8,170.55,96.85,170.09Zm31.71,12c0-.26,1-.59,2.21-.78s2.09-.1,2,.16-1,.59-2.19.77S128.53,182.4,128.56,182.14Zm1.81,14.08a8,8,0,0,1-2.11.48,6.36,6.36,0,0,1-2.08.18,9.76,9.76,0,0,1,2.13-.47A7.22,7.22,0,0,1,130.37,196.22Zm-22.79,29.42c-1,.14-1.76.09-1.72-.11s.87-.49,1.86-.63,1.75-.09,1.7.12S108.56,225.5,107.58,225.64Zm2.29-12.89a5.94,5.94,0,0,1-1.81.12,13.58,13.58,0,0,1,3.65-.5A7.2,7.2,0,0,1,109.87,212.75ZM112.06,199a5.58,5.58,0,0,1-1.85.09,7.4,7.4,0,0,1,1.89-.38,6.5,6.5,0,0,1,1.84-.1A6.32,6.32,0,0,1,112.06,199Zm7.54,45.32c-.11.39-1,.86-2.1,1.07s-1.81.05-1.71-.34,1-.86,2.11-1.07S119.71,244,119.6,244.34Zm.71-9.48c-1.09.19-1.9.11-1.83-.2s1-.7,2.11-.91,1.89-.11,1.81.19S121.38,234.63,120.31,234.86Zm2.74-11.68c-1.11.18-2,.18-1.93,0s1-.56,2.1-.72,2-.19,1.91,0S124.16,223,123.05,223.18Zm.65-12.62a8.76,8.76,0,0,1,2.08-.48,8.62,8.62,0,0,1,2-.21,8.37,8.37,0,0,1-2.07.48A8.13,8.13,0,0,1,123.7,210.56Zm6.82,39.94a3.8,3.8,0,0,1-2.32,1.29c-1.11.28-1.9.13-1.74-.31a3.85,3.85,0,0,1,2.34-1.29C129.91,249.91,130.68,250.05,130.52,250.5Zm3.25-9.24c-.13.38-1.16.92-2.3,1.18s-2,.17-1.87-.22,1.16-.92,2.32-1.18S133.89,240.87,133.77,241.26Zm.89-9.3c-1.19.25-2.09.21-2-.09s1.12-.77,2.3-1,2.06-.22,2,.09S135.84,231.7,134.66,232Zm3.11-11.62c-1.22.26-2.16.3-2.11.09a4.9,4.9,0,0,1,2.29-.82c1.2-.28,2.15-.29,2.09-.09A5.07,5.07,0,0,1,137.77,220.34Zm.78-12.42a12.2,12.2,0,0,1,2.28-.57A9.42,9.42,0,0,1,143,207a8.58,8.58,0,0,1-2.26.58A8.09,8.09,0,0,1,138.55,207.92Zm8.59,29.87a4.45,4.45,0,0,1-2.47,1.31c-1.22.35-2.11.3-2-.09s1.25-.95,2.48-1.3S147.29,237.42,147.14,237.79Zm1.07-9.09c-1.26.33-2.22.34-2.12,0s1.2-.81,2.47-1.14,2.19-.35,2.09,0A4.77,4.77,0,0,1,148.21,228.7Zm3.43-11.5c-1.29.32-2.29.4-2.25.2a6.41,6.41,0,0,1,2.45-.93c1.28-.3,2.27-.41,2.21-.21A5.79,5.79,0,0,1,151.64,217.2Zm3.28-12.6a11.39,11.39,0,0,1-2.35.41,16.79,16.79,0,0,1,2.42-.67,14,14,0,0,1,2.32-.42A11.57,11.57,0,0,1,154.92,204.6ZM158,191.23a10.73,10.73,0,0,1-2.4.37,12.1,12.1,0,0,1,2.46-.66,10.59,10.59,0,0,1,2.37-.37A15.09,15.09,0,0,1,158,191.23Zm2.8-14.06c-1.35.28-2.41.27-2.37,0s1.19-.65,2.54-.92,2.39-.28,2.35,0S162.13,176.91,160.78,177.17Zm.22-15.34c.07-.45,1.24-1,2.61-1.24s2.39-.07,2.33.38-1.23,1-2.58,1.23S160.93,162.27,161,161.83Zm3.6,51.95c-1.34.37-2.39.52-2.34.32a7.43,7.43,0,0,1,2.56-1c1.33-.4,2.36-.53,2.3-.33A6.45,6.45,0,0,1,164.6,213.78Zm3.53-12.43a13.93,13.93,0,0,1-2.45.52,13.65,13.65,0,0,1,2.52-.78,14.24,14.24,0,0,1,2.41-.53A16.73,16.73,0,0,1,168.13,201.35Zm3.25-13.18a11.75,11.75,0,0,1-2.49.46,18,18,0,0,1,2.56-.74,12,12,0,0,1,2.45-.47A16.3,16.3,0,0,1,171.38,188.17Zm3-13.83c-1.41.31-2.51.36-2.46.11s1.23-.7,2.63-1,2.47-.37,2.42-.12S175.74,174,174.35,174.34Zm6,23.55a13.07,13.07,0,0,1-2.49.63,15.1,15.1,0,0,1,2.57-.88,12.55,12.55,0,0,1,2.45-.63A19.62,19.62,0,0,1,180.34,197.89ZM183.77,185a11.44,11.44,0,0,1-2.54.56,21,21,0,0,1,2.6-.84,16,16,0,0,1,2.49-.57A13.47,13.47,0,0,1,183.77,185Zm3.09-13.56c-1.43.35-2.55.44-2.5.2a6.59,6.59,0,0,1,2.68-1.08c1.42-.32,2.51-.44,2.45-.2A6.15,6.15,0,0,1,186.86,171.39Zm7.28-45.27c-1.44.22-2.55-.27-2.46-1.11s1.36-1.69,2.8-1.9,2.5.28,2.42,1.11S195.57,125.91,194.14,126.12Zm.69,14.16c-.1.62-1.31,1.34-2.74,1.61s-2.55,0-2.46-.64,1.34-1.36,2.79-1.62S194.92,139.66,194.83,140.28Zm.93-30.47c-1.45.19-2.56-.55-2.48-1.61s1.33-2,2.78-2.19,2.53.57,2.44,1.61S197.19,109.66,195.76,109.81ZM183,111.21c-1.43.14-2.53-.6-2.45-1.69a2.89,2.89,0,0,1,2.75-2.22c1.42-.14,2.49.62,2.41,1.7A2.91,2.91,0,0,1,183,111.21Zm1.12,14.88c-.09.85-1.3,1.7-2.72,1.9s-2.52-.34-2.42-1.2,1.33-1.71,2.76-1.9S184.23,125.23,184.15,126.09Zm10.95,55.5a13.6,13.6,0,0,1-2.53.67,18.6,18.6,0,0,1,2.6-.93,14.86,14.86,0,0,1,2.48-.67A16.61,16.61,0,0,1,195.1,181.59Zm3.2-13.26c-1.42.43-2.54.54-2.5.3a6.54,6.54,0,0,1,2.69-1.15c1.4-.4,2.48-.54,2.43-.3A6.7,6.7,0,0,1,198.3,168.33Zm.4-14.14c.08-.42,1.32-1,2.74-1.39s2.48-.3,2.41.11-1.28,1-2.68,1.39S198.62,154.6,198.7,154.19Zm6.68,23.94a11.63,11.63,0,0,1-2.49.76,15.92,15.92,0,0,1,2.56-1,13,13,0,0,1,2.41-.77A16.19,16.19,0,0,1,205.38,178.13Zm3.28-12.93c-1.4.42-2.5.61-2.44.38a6.81,6.81,0,0,1,2.63-1.22c1.38-.44,2.43-.62,2.37-.39A6.86,6.86,0,0,1,208.66,165.2Zm2.93-13.67c-1.41.38-2.48.38-2.42,0s1.3-1.06,2.7-1.44,2.43-.38,2.34,0S213,151.13,211.59,151.53ZM217.93,162c-1.34.5-2.42.7-2.35.48a6.58,6.58,0,0,1,2.55-1.29c1.3-.51,2.33-.7,2.26-.49A6.63,6.63,0,0,1,217.93,162Zm3-13.27c-1.35.42-2.39.46-2.32.06s1.26-1.06,2.6-1.48,2.33-.46,2.23-.07S222.23,148.3,220.91,148.72Zm.27-14.28c.09-.58,1.29-1.31,2.63-1.69s2.31-.18,2.22.39-1.23,1.32-2.55,1.69S221.09,135,221.18,134.44Zm4.92,24.29c-1.26.54-2.26.79-2.2.57a8.09,8.09,0,0,1,2.4-1.36c1.24-.51,2.17-.79,2.11-.57A6.52,6.52,0,0,1,226.1,158.73Zm3-12.87c-1.26.47-2.25.54-2.17.16s1.2-1.06,2.46-1.53,2.16-.54,2.07-.16S230.36,145.4,229.12,145.86Zm2.59-13.45c-1.26.41-2.24.27-2.15-.29s1.22-1.33,2.5-1.71,2.14-.25,2.05.3S233,132,231.71,132.41ZM236.22,143c-1.15.52-2.06.61-2,.24s1.12-1.07,2.28-1.57,1.95-.61,1.87-.25S237.35,142.47,236.22,143Zm.66-13.2c.09-.54,1.14-1.31,2.3-1.73s2-.32,1.86.21-1.07,1.31-2.2,1.72S236.79,130.32,236.88,129.78Zm5.33,10.29c-1,.56-1.82.69-1.74.33a4.74,4.74,0,0,1,2-1.62c1-.52,1.69-.68,1.62-.33A4.5,4.5,0,0,1,242.21,140.07Zm.91-12.65c.1-.52,1-1.31,2.08-1.74s1.69-.4,1.6.12a3.58,3.58,0,0,1-2,1.74C243.82,128,243,127.94,243.12,127.42Zm5.6,8.06a4.49,4.49,0,0,1-1.63,1.66c-.86.59-1.54.77-1.46.42a5,5,0,0,1,1.76-1.66C248.23,135.34,248.8,135.14,248.72,135.48Zm-.42-10.43a3.9,3.9,0,0,1,1.79-1.76c.85-.45,1.41-.46,1.31,0a3.55,3.55,0,0,1-1.66,1.76C248.88,125.58,248.22,125.56,248.3,125.05Z"/><path class="cls-3" d="M301.88,97.13c4.91-9.39,15.19-14.9,25.62-14.9s19.07,5.51,21.75,15.19c5.51-10,15.64-15.19,26.81-15.19,19.07,0,25.18,14.9,25.18,33.82v44.69H381.13V118.13c0-13.26-4.32-20-12.81-20-9.54,0-16.09,9.09-16.09,24.58v38H332.12V114.41c0-9.54-4.32-16.24-12.52-16.24-9.23,0-16.38,9.68-16.38,23.83v38.74h-20V107.85c0-7.3-.15-15.64-.74-23.83h18.62c.3,3.27.45,9.23.45,13.11Z"/><path class="cls-3" d="M494.49,122.6c0,24-16.39,39.93-40.37,39.93s-40.37-16.24-40.37-40.08c0-24.73,16.38-40.22,41-40.22C478.1,82.23,494.49,98.17,494.49,122.6Zm-59.44,0c0,15.05,7.45,24.73,18.92,24.73,11.92,0,19.52-9.68,19.52-25.47S466.19,97,454.12,97,435.05,106.21,435.05,122.6Z"/><path class="cls-3" d="M498.06,98.77V84h15.05V67.93l18.77-6.41V84H550.2V98.77H531.88v29.94c0,11.62,2.23,16.83,11.92,16.83a24.05,24.05,0,0,0,7.3-1.19l.45,15.35a42.65,42.65,0,0,1-13.71,1.93c-17.58,0-25-8.64-25-28.9v-34Z"/><path class="cls-3" d="M562.12,69.42V50.35h20V69.42Zm0,14.6h20v76.72h-20Z"/><path class="cls-3" d="M626.92,126.62c1.49,4.77,4,13.41,5.21,18.62h.3c1.34-5.21,3.87-14.15,5.36-18.62L651.35,84h20.11L643.6,160.74H620.06L591.91,84h21.6Z"/><path class="cls-3" d="M695.59,128c.3,11.77,9.83,19.37,23.69,19.37a41.17,41.17,0,0,0,22.34-6.26l.3,16.39c-6.55,3.13-15.34,5.07-25,5.07-25.17,0-41.71-14.75-41.71-40.53,0-23.09,15.34-39.77,38.44-39.77,22.19,0,33.66,13.26,33.66,41,0,1.19-.15,3.72-.29,4.76ZM729,114.26c0-12.52-6.26-17.88-16.09-17.88-8.79,0-16.53,6-17.58,17.88Z"/><path class="cls-2" d="M117.16,96.23h-.3c-4.62-8.19-12.36-14-24.28-14-12.18,0-21.75,5.62-27.64,15,0,0-.2.3-.71,1.19s-.75,1.33-.75,1.33c-3.35,6.38-5.17,14.21-5.17,23,0,22.64,13.11,38,33.08,38,12.06,0,20-6.11,24.58-13.86h.3a71,71,0,0,0-.3,7.9c0,16.54-9.24,24.13-22.65,24.13a57.87,57.87,0,0,1-27.41-7.15l-1.49,17A85.85,85.85,0,0,0,95,193.81c22.9,0,35.34-10.76,39.11-27.22l.29-1.35a53.85,53.85,0,0,0,1-10.46V84H116.86C116.86,87.89,116.86,91.47,117.16,96.23ZM96.75,145.1A15.93,15.93,0,0,1,83,137.5s-.35-.52-.75-1.22-.72-1.41-.72-1.41a31.19,31.19,0,0,1-2.64-13.16C78.87,108,86,97.57,96.6,97.57c11.47,0,19.07,10.43,19.07,24C115.67,135,108.07,145.1,96.75,145.1Z"/><path class="cls-2" d="M197,144.35a24,24,0,0,1-7.3,1.19c-3.64,0-6.23-.74-8-2.29a6.6,6.6,0,0,1-.7-.67,5.74,5.74,0,0,1-.61-.8c-1.94-2.74-2.55-7-2.55-13.07V98.77h18.32V84H177.79V61.52L159,67.93V84H144V98.77h14.75v34c0,20.26,7.45,28.9,25,28.9a42.55,42.55,0,0,0,13.7-1.93Z"/></svg>